# xmcd
#
# Track frame offsets:
#	150
#	19930
#	35988
#	55129
#	72053
#	91581
#	110438
#	124963
#	140257
#	174372
#
# Disc length: 2525 seconds
#
# Revision: 1
# Processed by: cddbd v1.5.1PL2 Copyright (c) Steve Scherf et al.
# Submitted via: EasyCDDAExtractor 5.0.7
#
DISCID=8309db0a
DTITLE=Danny O'Keefe - American Roulette
DYEAR=2006
DGENRE=Pop
TTITLE0=The Runaway
TTITLE1=Islands
TTITLE2=On Discovering A Missing Person
TTITLE3=The Hereafter
TTITLE4=You Look Just Like A Girl Again
TTITLE5=All My Friends
TTITLE6=Plastic Saddle
TTITLE7=In Northern California (Where The Palm Tree Meets The Pine)
TTITLE8=American Roulette
TTITLE9=Just Jones
EXTD=
EXTT0=
EXTT1=
EXTT2=
EXTT3=
EXTT4=
EXTT5=
EXTT6=
EXTT7=
EXTT8=
EXTT9=
PLAYORDER=
